:SAMPLES-PER-SECOND 30
:FULLY-SPECIFIED
:DEGREES
1
root  3.62018 40.9382 -3.55919 -162.146 -86.5266 160.608
RightUpLeg  -0.971578 -8.58111 -6.36811
RightLeg  6.0924 -1.51217 3.13542
RightFoot  -2.29553 -0.0231977 0.0828959
RightToes  0.00048216 0.542163 -0.142577
Spine  5.50877 -1.31873 -3.51157
Spine1  -2.24926 -1.65188 1.77871
HEad  0.496545 -2.73277 0.510985
LeftShoulder1  0.807387 -2.57973 -5.42829
LeftArm  -20.2529 11.9712 -7.84663
LeftForeArm  3.5792 -0.00551906 -0.316506
LeftHand  -0.25398 0.0180481 5.50724
RightShoulder  0.372132 -0.583378 4.90388
RightArm  -24.9111 1.25477 2.52091
RightForeArm  -0.604717 -0.0964827 1.74911
RightHand  -1.92898 6.16843 -19.589
LeftUpLeg  -0.0685685 3.42222 1.50877
LeftLeg  3.19278 4.47357 -2.92483
LeftFoot  -1.93908 -0.0283685 0.499551
LeftToes  1.06243e-005 4.65856e-005 -8.18503e-006
2
root  3.61223 40.9382 -3.55489 -162.275 -86.5312 160.713
RightUpLeg  -0.940375 -8.58202 -6.37459
RightLeg  6.10074 -1.51267 3.13549
RightFoot  -2.3002 -0.0253768 0.116727
RightToes  0.00048216 0.542163 -0.142577
Spine  5.50002 -1.34964 -3.51337
Spine1  -2.21492 -1.67572 1.73037
HEad  0.484487 -2.69817 0.56549
LeftShoulder1  0.795956 -2.53895 -5.31588
LeftArm  -20.2442 11.9665 -7.98552
LeftForeArm  3.47242 0.0317031 -0.322496
LeftHand  -0.25398 0.0180481 5.50724
RightShoulder  0.379931 -0.539724 4.99084
RightArm  -24.9377 1.24197 2.44713
RightForeArm  -0.219355 -0.0899464 1.71995
RightHand  -1.90474 6.21337 -19.2813
LeftUpLeg  -0.0389698 3.41344 1.50116
LeftLeg  3.20702 4.48343 -2.90716
LeftFoot  -1.9505 -0.029852 0.522606
LeftToes  1.06243e-005 4.65856e-005 -8.18503e-006
3
root  3.59383 40.9382 -3.54573 -162.436 -86.5029 160.823
RightUpLeg  -0.862164 -8.58749 -6.40336
RightLeg  6.09628 -1.48714 3.13227
RightFoot  -2.32917 -0.0269084 0.140507
RightToes  0.00048216 0.542163 -0.142577
Spine  5.44046 -1.39314 -3.57169
Spine1  -2.08276 -1.71967 1.71013
HEad  0.471323 -2.62221 0.607457
LeftShoulder1  0.776777 -2.45986 -5.14985
LeftArm  -20.3009 11.9484 -8.25632
LeftForeArm  3.3479 0.0919957 -0.312767
LeftHand  -0.25398 0.0180481 5.50724
RightShoulder  0.384838 -0.53243 5.11747
RightArm  -25.041 1.35234 2.36875
RightForeArm  0.297138 -0.198389 1.65771
RightHand  -1.86639 6.27348 -18.8156
LeftUpLeg  0.0403848 3.39755 1.47433
LeftLeg  3.22401 4.53308 -2.87993
LeftFoot  -1.99217 -0.0298968 0.523302
LeftToes  1.06243e-005 4.65856e-005 -8.18503e-006
4
root  3.57066 40.9382 -3.53469 -162.63 -86.4393 160.967
RightUpLeg  -0.78537 -8.5953 -6.43837
RightLeg  6.10169 -1.41837 3.12204
RightFoot  -2.37727 -0.025717 0.11915
RightToes  0.00048216 0.542163 -0.142577
Spine  5.36413 -1.42474 -3.65587
Spine1  -1.94489 -1.75765 1.72704
HEad  0.489653 -2.56893 0.626329
LeftShoulder1  0.759797 -2.39858 -4.97807
LeftArm  -20.42 11.9413 -8.53769
LeftForeArm  3.40789 0.132503 -0.268986
LeftHand  -0.25398 0.0180481 5.50724
RightShoulder  0.38866 -0.555726 5.249
RightArm  -25.0617 1.53242 2.30195
RightForeArm  0.385339 -0.395593 1.63965
RightHand  -1.84243 6.26411 -18.5978
LeftUpLeg  0.145713 3.39479 1.44823
LeftLeg  3.2155 4.59822 -2.87598
LeftFoot  -2.05105 -0.0289968 0.509315
LeftToes  1.06243e-005 4.65856e-005 -8.18503e-006
5
root  3.5472 40.9382 -3.52281 -162.901 -86.3714 161.225
RightUpLeg  -0.765542 -8.58885 -6.45693
RightLeg  6.13866 -1.33804 3.1003
RightFoot  -2.4146 -0.0266599 0.117087
RightToes  0.00048216 0.542163 -0.142577
Spine  5.31709 -1.44192 -3.69819
Spine1  -1.92354 -1.77494 1.7309
HEad  0.515028 -2.575 0.659394
LeftShoulder1  0.755166 -2.4063 -4.87145
LeftArm  -20.4471 11.9552 -8.66111
LeftForeArm  3.58213 0.114468 -0.259098
LeftHand  -0.25398 0.0180481 5.50724
RightShoulder  0.39063 -0.551487 5.35877
RightArm  -24.9048 1.59225 2.22712
RightForeArm  0.13984 -0.49176 1.69657
RightHand  -1.85067 6.25095 -18.6975
LeftUpLeg  0.225644 3.41092 1.43781
LeftLeg  3.17992 4.65019 -2.90388
LeftFoot  -2.09831 -0.0306986 0.535763
LeftToes  1.06243e-005 4.65856e-005 -8.18503e-006
6
root  3.52391 40.9382 -3.50892 -163.245 -86.3009 161.594
RightUpLeg  -0.792006 -8.56538 -6.46221
RightLeg  6.18146 -1.27608 3.06515
RightFoot  -2.42447 -0.0329462 0.191203
RightToes  0.00048216 0.542163 -0.142577
Spine  5.28047 -1.44281 -3.71301
Spine1  -1.9669 -1.77614 1.75008
HEad  0.465796 -2.61452 0.669636
LeftShoulder1  0.76373 -2.45923 -4.90614
LeftArm  -20.3686 11.9483 -8.58919
LeftForeArm  3.70384 0.0633872 -0.294891
LeftHand  -0.25398 0.0180481 5.50724
RightShoulder  0.388006 -0.55112 5.35402
RightArm  -24.7521 1.49849 2.22918
RightForeArm  -0.140091 -0.383433 1.76775
RightHand  -1.86664 6.22695 -18.8898
LeftUpLeg  0.262702 3.43361 1.43295
LeftLeg  3.14739 4.70233 -2.94103
LeftFoot  -2.12973 -0.0338257 0.584363
LeftToes  1.06243e-005 4.65856e-005 -8.18503e-006
7
root  3.5003 40.9382 -3.49217 -163.715 -86.2089 162.088
RightUpLeg  -0.799365 -8.54355 -6.47176
RightLeg  6.18032 -1.207 3.04055
RightFoot  -2.42307 -0.0403804 0.278557
RightToes  0.00048216 0.542163 -0.142577
Spine  5.21923 -1.42648 -3.75204
Spine1  -1.93207 -1.77547 1.84508
HEad  0.316117 -2.6724 0.592414
LeftShoulder1  0.778887 -2.51132 -5.06523
LeftArm  -20.3818 11.9012 -8.44056
LeftForeArm  3.78948 0.0500396 -0.285311
LeftHand  -0.25398 0.0180481 5.50724
RightShoulder  0.377263 -0.60208 5.19538
RightArm  -24.7702 1.37987 2.36351
RightForeArm  -0.462199 -0.190251 1.7998
RightHand  -1.85211 6.07138 -18.9893
LeftUpLeg  0.284124 3.45922 1.42658
LeftLeg  3.15121 4.76587 -2.96868
LeftFoot  -2.16988 -0.0352729 0.606856
LeftToes  1.06243e-005 4.65856e-005 -8.18503e-006
8
root  3.47684 40.9382 -3.4726 -164.416 -86.1087 162.804
RightUpLeg  -0.771329 -8.54389 -6.48766
RightLeg  6.13132 -1.09882 3.05482
RightFoot  -2.42522 -0.0431602 0.291272
RightToes  0.00048216 0.542163 -0.142577
Spine  5.14687 -1.40951 -3.785
Spine1  -1.82527 -1.78324 1.97663
HEad  0.149317 -2.75334 0.456573
LeftShoulder1  0.79759 -2.57292 -5.2641
LeftArm  -20.5337 11.8738 -8.28171
LeftForeArm  3.89021 0.0787593 -0.202362
LeftHand  -0.25398 0.0180481 5.50724
RightShoulder  0.367671 -0.642337 5.02421
RightArm  -24.7927 1.31876 2.46008
RightForeArm  -0.824232 -0.103042 1.82244
RightHand  -1.82108 5.84672 -19.037
LeftUpLeg  0.300441 3.50153 1.4349
LeftLeg  3.1897 4.81665 -2.99865
LeftFoot  -2.22913 -0.0379547 0.648536
LeftToes  1.06243e-005 4.65856e-005 -8.18503e-006
9
root  3.45242 40.9378 -3.44934 -165.267 -86.0222 163.688
RightUpLeg  -0.765777 -8.57034 -6.50759
RightLeg  6.09996 -0.962966 3.10232
RightFoot  -2.42826 -0.0434308 0.264852
RightToes  0.00048216 0.542163 -0.142577
Spine  5.09296 -1.40974 -3.758
Spine1  -1.76619 -1.80027 2.07106
HEad  0.041515 -2.79366 0.339203
LeftShoulder1  0.814689 -2.63253 -5.43473
LeftArm  -20.6091 11.8994 -8.10348
LeftForeArm  3.89703 0.0819923 -0.153228
LeftHand  -0.25398 0.0180481 5.50724
RightShoulder  0.370833 -0.609896 4.98485
RightArm  -24.5896 1.32084 2.33872
RightForeArm  -0.913999 -0.172889 1.87765
RightHand  -1.82419 5.81059 -19.1263
LeftUpLeg  0.302282 3.5561 1.45871
LeftLeg  3.22322 4.86506 -3.04402
LeftFoot  -2.3037 -0.0442448 0.746297
LeftToes  1.06243e-005 4.65856e-005 -8.18503e-006
10
root  3.42495 40.9349 -3.42059 -165.918 -85.9264 164.389
RightUpLeg  -0.815874 -8.61936 -6.55128
RightLeg  6.15009 -0.803989 3.14811
RightFoot  -2.44558 -0.0463325 0.281292
RightToes  0.00048216 0.542163 -0.142577
Spine  5.05229 -1.41815 -3.71826
Spine1  -1.75216 -1.82242 2.16637
HEad  -0.0286046 -2.70528 0.232617
LeftShoulder1  0.815178 -2.58933 -5.5484
LeftArm  -20.531 11.8877 -7.98344
LeftForeArm  3.76848 0.060763 -0.191597
LeftHand  -0.25398 0.0180481 5.50724
RightShoulder  0.37431 -0.580376 4.97323
RightArm  -24.2979 1.39219 2.15142
RightForeArm  -0.574242 -0.281746 1.93677
RightHand  -1.86649 6.03216 -19.1935
LeftUpLeg  0.295005 3.56797 1.44708
LeftLeg  3.26195 5.00391 -3.06114
LeftFoot  -2.46482 -0.0430217 0.751374
LeftToes  1.06243e-005 4.65856e-005 -8.18503e-006
11
root  3.39539 40.926 -3.38511 -166.273 -85.7939 164.777
RightUpLeg  -0.886427 -8.6923 -6.63307
RightLeg  6.27708 -0.591469 3.18359
RightFoot  -2.53232 -0.0502015 0.31696
RightToes  0.00048216 0.542163 -0.142577
Spine  5.01074 -1.42206 -3.70669
Spine1  -1.6786 -1.84821 2.30889
HEad  -0.0702589 -2.54059 0.0791828
LeftShoulder1  0.795392 -2.41197 -5.61966
LeftArm  -20.4966 11.7725 -7.99982
LeftForeArm  3.67735 0.0920678 -0.221975
LeftHand  -0.25398 0.0180481 5.50724
RightShoulder  0.365351 -0.616008 4.8024
RightArm  -24.2528 1.48067 2.16721
RightForeArm  -0.0805731 -0.28499 1.93473
RightHand  -1.89659 6.27978 -19.0986
LeftUpLeg  0.249512 3.47587 1.34706
LeftLeg  3.4649 5.30362 -2.94818
LeftFoot  -2.89122 -0.0189844 0.491018
LeftToes  1.06243e-005 4.65856e-005 -8.18503e-006
12
root  3.3656 40.9085 -3.34146 -167.015 -85.6322 165.509
RightUpLeg  -0.93864 -8.77516 -6.71472
RightLeg  6.45198 -0.323004 3.23105
RightFoot  -2.69174 -0.0516193 0.320987
RightToes  0.00048216 0.542163 -0.142577
Spine  4.99566 -1.43106 -3.57601
Spine1  -1.56147 -1.86264 2.35477
HEad  0.0358233 -2.46064 -0.10174
LeftShoulder1  0.779814 -2.26819 -5.68935
LeftArm  -20.5914 11.6995 -8.04163
LeftForeArm  3.70002 0.131535 -0.183614
LeftHand  -0.25398 0.0180481 5.50724
RightShoulder  0.357941 -0.626506 4.56335
RightArm  -24.4998 1.495 2.31924
RightForeArm  0.291798 -0.162965 1.86146
RightHand  -1.8866 6.34687 -18.8986
LeftUpLeg  0.102837 3.31761 1.18337
LeftLeg  4.02493 5.70452 -2.63655
LeftFoot  -3.70476 0.0178986 0.0649645
LeftToes  1.06243e-005 4.65856e-005 -8.18503e-006
13
root  3.3312 40.8846 -3.28578 -169.017 -85.3876 167.407
RightUpLeg  -0.932095 -8.82301 -6.74106
RightLeg  6.69477 0.00905464 3.27353
RightFoot  -2.85849 -0.0542076 0.351792
RightToes  0.00048216 0.542163 -0.142577
Spine  5.07051 -1.43207 -3.1186
Spine1  -1.48772 -1.80862 2.08128
HEad  0.424257 -2.50674 -0.235662
LeftShoulder1  0.788577 -2.31414 -5.73965
LeftArm  -20.7119 11.8899 -8.01592
LeftForeArm  3.69722 -0.0221961 -0.13007
LeftHand  -0.25398 0.0180481 5.50724
RightShoulder  0.364419 -0.571936 4.52805
RightArm  -24.8054 1.50508 2.38538
RightForeArm  0.387261 0.000797433 1.7828
RightHand  -1.86874 6.22865 -18.9081
LeftUpLeg  -0.0636683 3.24452 1.03744
LeftLeg  4.90944 6.12472 -2.1803
LeftFoot  -4.80745 0.0441383 -0.265736
LeftToes  1.06243e-005 4.65856e-005 -8.18503e-006
